<?xml version="1.0" encoding="utf-8"?>
<!-- Generator: Adobe Illustrator 26.4.1, SVG Export Plug-In . SVG Version: 6.00 Build 0)  -->
<svg version="1.1" id="Layer_1" xmlns="http://www.w3.org/2000/svg" xmlns:xlink="http://www.w3.org/1999/xlink" x="0px" y="0px"
	 viewBox="0 0 600 240" style="enable-background:new 0 0 600 240;" xml:space="preserve">
<style type="text/css">
	.st0{fill:#FFFFFF;}
	.st1{fill:#00A94F;}
	.st2{clip-path:url(#SVGID_00000083057533349287896220000016134005788403046302_);fill:#FFFFFF;}
	.st3{fill:#0067B1;}
	.st4{clip-path:url(#SVGID_00000039829199340063371730000004131896360091510197_);fill:#FFFFFF;}
	.st5{clip-path:url(#SVGID_00000028322698983867044340000004239734739158652045_);fill:#FFFFFF;}
	.st6{clip-path:url(#SVGID_00000018204554539484894890000010232639226496489630_);fill:#FFFFFF;}
	.st7{clip-path:url(#SVGID_00000006669998950223955160000002895027999496293796_);fill:#00A94F;}
	.st8{clip-path:url(#SVGID_00000008150863738053431380000015528541847771331207_);fill:#0067B1;}
	.st9{clip-path:url(#SVGID_00000004505037219164534750000003169975755078750879_);fill:#0067B1;}
	.st10{fill:none;stroke:#FFFFFF;stroke-width:0.369;stroke-miterlimit:3.864;}
	.st11{clip-path:url(#SVGID_00000053547303914062488160000004635642245820206746_);fill:#FFFFFF;}
	.st12{clip-path:url(#SVGID_00000110454715314033473250000003943838774994871185_);fill:#FFFFFF;}
	.st13{clip-path:url(#SVGID_00000173143596232675180030000009745879165001815725_);fill:#FFFFFF;}
	.st14{clip-path:url(#SVGID_00000054957157254847868180000010075602649628118973_);fill:#FFFFFF;}
	.st15{fill:none;stroke:#FFFFFF;stroke-width:0.255;stroke-miterlimit:3.864;}
	.st16{clip-path:url(#SVGID_00000097473963710009686710000017846655088099810950_);fill:#FFFFFF;}
	.st17{clip-path:url(#SVGID_00000010277876259758192750000004534757438878059943_);fill:#FFFFFF;}
	.st18{clip-path:url(#SVGID_00000111153219930855735090000015483201317547728015_);fill:#FFFFFF;}
	.st19{clip-path:url(#SVGID_00000049205112092887212880000005576862670620388770_);fill:#FFFFFF;}
	.st20{clip-path:url(#SVGID_00000147188930428365344770000007277567602364457091_);fill:#00A94F;}
	.st21{clip-path:url(#SVGID_00000069382448728846199720000009163867568074757032_);fill:#0067B1;}
	.st22{clip-path:url(#SVGID_00000020370521477211742010000011135342179643390897_);fill:#0067B1;}
	.st23{clip-path:url(#SVGID_00000063598799211146877710000014493249560392452257_);fill:#FFFFFF;}
	.st24{clip-path:url(#SVGID_00000078724891165271120770000003142303771545632690_);fill:#FFFFFF;}
	.st25{clip-path:url(#SVGID_00000176021085196398700770000011218522309203057331_);fill:#FFFFFF;}
	.st26{clip-path:url(#SVGID_00000176753111857661562090000012796684001848716475_);fill:#FFFFFF;}
	.st27{fill:none;stroke:#53B755;stroke-width:0.677;stroke-miterlimit:3.864;}
	.st28{fill:#53B755;}
	.st29{fill:none;stroke:#53B755;stroke-width:0.061;stroke-miterlimit:3.864;}
	.st30{fill:none;stroke:#53B755;stroke-width:0.33;stroke-miterlimit:3.864;}
	.st31{fill:#CE1141;}
	.st32{fill:#0099D8;}
	.st33{fill:#F58220;}
	.st34{fill:#00539F;}
	.st35{fill:none;stroke:#FFEF00;stroke-width:0.322;stroke-miterlimit:3.978;}
	.st36{fill:#FFEF00;}
	.st37{fill:none;stroke:#FFEF00;stroke-width:0.367;}
	.st38{fill:none;stroke:#CE1141;stroke-width:0.463;}
	.st39{fill:#EF3E33;}
	.st40{fill:#BA0C2F;}
	.st41{fill:#0085CA;}
	.st42{fill:#FF671F;}
	.st43{fill:#001489;}
	.st44{fill:#007A53;}
	.st45{fill:#CD1141;}
	.st46{fill:#231F20;}
	.st47{fill-rule:evenodd;clip-rule:evenodd;fill:#231F20;}
	.st48{fill:none;stroke:#CD1141;stroke-width:2.0002;stroke-miterlimit:3.8637;}
	.st49{fill:#929497;}
	.st50{fill:#004F9C;}
</style>
<g>
	<rect x="8.61" y="24.59" class="st31" width="193.93" height="193.93"/>
	<rect x="36.12" y="53.53" class="st32" width="166.4" height="164.98"/>
	<rect x="65.08" y="86.78" class="st33" width="137.46" height="131.73"/>
	<rect x="94.02" y="120" class="st34" width="108.51" height="98.51"/>
	<rect x="122.98" y="153.24" class="st28" width="79.56" height="65.27"/>
	<path d="M314.64,66.39c0,9.52-1.9,18.02-7.86,25.63c-6.09,7.48-14.71,12.18-24.48,12.18c-9.65,0-18.53-3.94-24.62-11.3
		c-6.22-7.35-8.5-17-8.5-26.51c0-9.13,2.16-18.65,7.99-25.88c6.09-7.74,15.22-11.93,25.13-11.93c9.5,0,17.88,4.32,23.98,11.55
		C312.62,47.87,314.64,56.63,314.64,66.39 M237.76,66.39c0,23.1,21.45,41.36,44.28,41.36c24.11,0,44.15-16.87,44.15-41.36
		c0-24.49-20.04-41.24-44.15-41.24C259.2,25.16,237.76,43.31,237.76,66.39"/>
	<path d="M372.05,69.94c8.62,3.81,15.49,8.75,15.49,18.91c0,10.01-9.4,16.49-18.91,16.49c-11.55,0-17.38-6.85-18.65-17.76
		c-0.13-1.01-0.13-4.19-1.77-4.19c-1.4,0-1.78,1.52-1.9,2.53c-0.38,3.29-0.38,6.47-0.38,9.78c0,2.28-0.38,5.71,1.77,7.1
		c5.33,3.18,12.94,4.95,19.16,4.95c7.35,0,14.58-1.9,20.29-6.6c5.46-4.57,8.89-10.91,8.89-18.02c0-5.45-2.4-11.03-6.09-15.09
		c-3.04-3.29-8.37-5.96-12.56-7.86c-8.26-3.56-22.21-7.99-22.21-18.91c0-9.25,7.99-13.57,16.37-13.57c9.9,0,13.7,4.7,16.5,13.45
		c0.38,0.89,0.64,2.91,2.03,2.91c0.88,0,1.39-0.63,1.39-1.52c-0.13-3.3-0.38-6.6-0.51-9.9c-0.12-2.28,0.13-3.81-2.27-4.7
		c-4.7-1.9-12.06-2.78-17.01-2.78c-12.44,0-24.49,8.11-24.49,21.43c0,11.3,9.13,16.5,18.4,20.55L372.05,69.94z"/>
	<path d="M482.37,35.05c-0.38-3.56,0.13-5.2-3.54-6.47c-5.46-1.9-14.34-3.43-20.05-3.43c-23.22,0-44.03,17.51-44.03,40.99
		c0,22.45,18.4,41.61,41.5,41.61c8.36,0,15.47-1.77,22.96-5.33c3.94-1.9,3.82-2.15,4.07-6.09l0.63-10.28
		c0.13-0.88-0.38-1.64-1.39-1.64c-3.44,0-4.95,19.91-24.62,19.91c-10.28,0-18.14-5.45-23.98-13.44c-5.33-7.36-7.86-15.87-7.86-24.87
		c0-19.03,10.53-37.3,31.84-37.3c19.67,0,20.68,16.24,23.98,16.24c1.02,0,1.4-0.63,1.4-1.64L482.37,35.05z"/>
	<path d="M578.85,66.39c0,9.52-1.9,18.02-7.86,25.63c-6.09,7.48-14.71,12.18-24.49,12.18c-9.65,0-18.52-3.94-24.61-11.3
		c-6.22-7.35-8.5-17-8.5-26.51c0-9.13,2.15-18.65,7.99-25.88c6.09-7.74,15.23-11.93,25.12-11.93c9.52,0,17.89,4.32,23.98,11.55
		C576.83,47.87,578.85,56.63,578.85,66.39 M501.96,66.39c0,23.1,21.45,41.36,44.28,41.36c24.1,0,44.15-16.87,44.15-41.36
		c0-24.49-20.05-41.24-44.15-41.24C523.41,25.16,501.96,43.31,501.96,66.39"/>
	<path d="M270.54,132.02c0-0.77,0.3-2.1-0.48-2.64c-1.93-1.32-5.1-1.97-7.37-1.97c-8.04,0-15.59,6.35-15.59,14.45
		c0,7.26,6.05,13.37,13.43,13.37c3.24,0,6.24-0.96,8.69-2.94c0.43-0.36,1.8-1.56,1.8-2.15c0-0.24-0.18-0.49-0.42-0.49
		c-0.3,0-0.73,0.55-0.89,0.73c-1.87,1.8-4.32,2.64-6.9,2.64c-6.72,0-11.22-6.24-11.22-12.36c0-3.65,1.56-7.32,4.32-9.72
		c1.56-1.32,3.96-2.46,6.05-2.46c4.85,0,5.95,6.6,7.86,6.6C270.9,135.08,270.54,132.5,270.54,132.02"/>
	<path d="M292.48,154.09c-6.77,0-10.55-7.37-10.55-13.31c0-6.11,3.72-12.24,10.31-12.24c6.96,0,10.37,6.9,10.37,12.96
		C302.62,147.19,298.96,154.09,292.48,154.09 M292.3,155.23c8.04,0,14.88-5.93,14.88-14.15c0-3.83-1.75-7.73-4.69-10.19
		c-2.88-2.46-6.47-3.47-10.19-3.47c-4.02,0-7.91,1.2-10.79,4.02c-2.58,2.45-4.08,6.05-4.08,9.65
		C277.43,149.3,284.21,155.23,292.3,155.23"/>
	<path d="M317.37,148.39c0,2.58,0.54,4.62-2.7,4.91c-0.65,0.07-1.68-0.06-1.68,0.84c0,0.49,0.42,0.6,0.83,0.6
		c1.87,0,3.78-0.23,5.7-0.23c1.8,0,3.72,0.23,5.64,0.23c0.42,0,0.73-0.18,0.73-0.65c0-0.78-1.08-0.71-1.68-0.78
		c-3.25-0.3-2.7-2.33-2.7-4.91v-10.07c0-2.4,0.18-3.71,1.91-5.52c1.56-1.62,3.66-2.57,5.94-2.57c2.34,0,4.5,0.95,5.64,2.69
		c1.08,1.63,1.08,4.02,1.08,5.94v9.54c0,2.58,0.54,4.62-2.7,4.91c-0.65,0.07-1.68-0.06-1.68,0.84c0,0.49,0.42,0.6,0.83,0.6
		c1.87,0,3.78-0.23,5.7-0.23c1.81,0,3.72,0.23,5.64,0.23c0.42,0,0.73-0.18,0.73-0.65c0-0.78-1.08-0.71-1.68-0.78
		c-3.25-0.3-2.7-2.33-2.7-4.91v-9.47c0-2.88,0.12-5.82-1.8-8.28c-1.69-2.16-4.08-3.24-7.09-3.24c-5.45,0-8.81,4.91-9.82,4.91v-3.96
		c0-0.42,0.06-0.95-0.55-0.95c-0.48,0-0.77,0.48-1.07,0.77c-0.96,1.14-3.54,2.7-4.98,3.12c-0.54,0.19-1.38,0.31-1.38,1.02
		c0,0.36,0.36,0.48,0.71,0.48h0.78c0.49,0,1.38,0.07,1.75,0.49c0.65,0.65,0.59,3,0.59,3.83V148.39z"/>
	<path d="M350.04,151.27c0,0.96-0.12,1.74,0.84,2.16c1.97,1.01,5.52,1.8,7.61,1.8c5.1,0,11.39-3,11.39-8.75
		c0-9.78-14.99-6.6-14.99-13.61c0-2.76,3.06-4.45,5.51-4.45c6.48,0,5.83,5.64,7.32,5.64c1.02,0,0.61-2.57,0.61-2.94
		c0-0.9,0.36-2.22-0.67-2.7c-1.43-0.59-4.6-1.01-6.17-1.01c-2.52,0-4.97,0.48-7.08,1.97c-1.92,1.38-3.18,3.23-3.18,5.58
		c0,4.85,5.46,6.35,9.17,7.55c2.88,0.96,5.77,2.27,5.77,5.76c0,3.84-3.78,5.88-7.33,5.88c-8.15,0-5.69-8.22-7.85-8.22
		c-0.65,0-0.73,0.84-0.79,1.32L350.04,151.27z"/>
	<path d="M383.02,130.76c0-1.68,0.84-1.32,2.22-1.32h3.35c1.38,0,1.86,0.31,1.86-0.96c0-0.48,0-0.83-0.54-0.83h-5.93
		c-0.85-0.06-0.96-0.42-0.96-1.2v-4.26c0-0.36-0.06-0.71-0.48-0.71c-0.3,0-0.49,0.3-0.61,0.54c-1.38,2.88-3.12,4.38-5.7,6.05
		c-0.3,0.24-0.71,0.48-0.71,0.9c0,0.71,1.56,0.48,1.85,0.48c1.14,0,1.5-0.18,1.5,1.08v15.41c0,2.39-0.24,5.45,1.32,7.43
		c1.02,1.26,2.7,1.86,4.32,1.86c2.09,0,4.08-0.9,5.58-2.27c0.42-0.31,1.2-1.08,1.2-1.69c0-0.18-0.18-0.42-0.42-0.42
		c-0.49,0-2.11,2.11-4.32,2.11c-3.6,0-3.54-4.44-3.54-7.02V130.76z"/>
	<path d="M399.99,148.39c0,2.58,0.54,4.62-2.7,4.91c-0.65,0.07-1.68-0.06-1.68,0.84c0,0.49,0.42,0.6,0.84,0.6
		c1.86,0,3.77-0.23,5.69-0.23c1.81,0,3.72,0.23,5.64,0.23c0.42,0,0.73-0.18,0.73-0.65c0-0.78-1.08-0.71-1.68-0.78
		c-3.25-0.3-2.7-2.33-2.7-4.91v-9.47c0-2.4-0.06-3.96,1.38-6.01c0.71-0.89,1.74-2.15,3.06-2.15c1.68,0,1.8,2.27,3.84,2.27
		c1.44,0,2.51-0.89,2.51-2.39c0-1.8-1.62-2.88-3.41-2.88c-4.14,0-6.48,4.79-7.08,4.79c-0.42,0-0.3-1.01-0.3-1.26v-2.94
		c0-0.42,0.06-0.95-0.55-0.95c-0.48,0-0.77,0.48-1.07,0.77c-0.96,1.14-3.54,2.7-4.98,3.12c-0.54,0.19-1.38,0.31-1.38,1.02
		c0,0.36,0.37,0.48,0.73,0.48h0.77c0.49,0,1.38,0.07,1.74,0.49c0.67,0.65,0.61,3,0.61,3.83V148.39z"/>
	<path d="M445.19,129.69c0-0.67,0.3-1.5-0.67-1.5h-6.95c-0.48,0-0.85-0.12-0.85,0.42c0,0.78,1.14,0.78,1.68,0.78
		c3.25,0,2.64,2.27,2.64,4.79v11.45c0,1.68,0.24,3.06-1.01,4.44c-1.69,1.86-3.84,2.7-6.42,2.7c-2.21,0-4.79-0.79-6-2.76
		c-1.08-1.74-1.08-4.75-1.08-6.72v-12.95c0-0.89,0.31-2.15-0.96-2.15h-6.71c-0.49,0-0.79-0.12-0.79,0.36c0,0.84,1.08,0.84,1.62,0.84
		c3.31,0,2.7,2.27,2.7,4.79v9.11c0,2.94-0.12,5.99,1.81,8.46c1.74,2.28,4.13,3.48,7.07,3.48c5.46,0,8.29-4.21,9.18-4.21
		c0.77,0,0.48,2.16,0.48,2.47v1.44c0,0.3,0,0.48,0.3,0.48c0.19,0,0.55-0.31,0.67-0.36c1.74-1.32,3.9-1.99,6-2.58
		c0.36-0.12,1.26-0.25,1.26-0.78c0-0.42-0.42-0.48-0.78-0.48l-0.77,0.06c-2.88,0.24-2.4-1.62-2.4-3.96V129.69z"/>
	<path d="M479.31,132.02c0-0.77,0.3-2.1-0.48-2.64c-1.93-1.32-5.1-1.97-7.39-1.97c-8.03,0-15.58,6.35-15.58,14.45
		c0,7.26,6.05,13.37,13.43,13.37c3.24,0,6.23-0.96,8.7-2.94c0.42-0.36,1.8-1.56,1.8-2.15c0-0.24-0.18-0.49-0.42-0.49
		c-0.3,0-0.73,0.55-0.9,0.73c-1.86,1.8-4.32,2.64-6.9,2.64c-6.71,0-11.2-6.24-11.2-12.36c0-3.65,1.56-7.32,4.32-9.72
		c1.56-1.32,3.96-2.46,6.05-2.46c4.85,0,5.93,6.6,7.85,6.6C479.67,135.08,479.31,132.5,479.31,132.02"/>
	<path d="M492.38,130.76c0-1.68,0.83-1.32,2.22-1.32h3.35c1.38,0,1.86,0.31,1.86-0.96c0-0.48,0-0.83-0.54-0.83h-5.93
		c-0.85-0.06-0.96-0.42-0.96-1.2v-4.26c0-0.36-0.06-0.71-0.48-0.71c-0.3,0-0.49,0.3-0.61,0.54c-1.38,2.88-3.12,4.38-5.7,6.05
		c-0.3,0.24-0.71,0.48-0.71,0.9c0,0.71,1.56,0.48,1.85,0.48c1.14,0,1.5-0.18,1.5,1.08v15.41c0,2.39-0.24,5.45,1.32,7.43
		c1.02,1.26,2.7,1.86,4.32,1.86c2.11,0,4.08-0.9,5.58-2.27c0.42-0.31,1.2-1.08,1.2-1.69c0-0.18-0.19-0.42-0.42-0.42
		c-0.49,0-2.11,2.11-4.33,2.11c-3.59,0-3.53-4.44-3.53-7.02V130.76z"/>
	<path d="M511.87,122.19c1.74,0,2.64-1.38,2.64-3c0-1.44-0.96-2.88-2.52-2.88c-1.62,0-2.7,1.44-2.7,3
		C509.29,120.87,510.24,122.19,511.87,122.19 M513.96,128.37c0-0.42,0.06-0.96-0.54-0.96c-0.49,0-0.78,0.49-1.08,0.79
		c-0.96,1.14-3.54,2.69-4.97,3.12c-0.55,0.19-1.38,0.31-1.38,1.02c0,0.36,0.36,0.48,0.71,0.48h0.79c0.48,0,1.38,0.06,1.74,0.48
		c0.65,0.67,0.59,3,0.59,3.84v11.28c0,2.58,0.55,4.62-2.7,4.91c-0.65,0.06-1.68-0.06-1.68,0.84c0,0.48,0.43,0.59,0.84,0.59
		c1.86,0,3.77-0.24,5.7-0.24c1.8,0,3.71,0.24,5.64,0.24c0.42,0,0.71-0.18,0.71-0.65c0-0.78-1.08-0.73-1.68-0.78
		c-3.24-0.3-2.7-2.33-2.7-4.91V128.37z"/>
	<path d="M539.14,154.09c-6.78,0-10.55-7.37-10.55-13.31c0-6.11,3.71-12.24,10.31-12.24c6.96,0,10.37,6.9,10.37,12.96
		C549.28,147.19,545.61,154.09,539.14,154.09 M538.96,155.23c8.04,0,14.87-5.93,14.87-14.15c0-3.83-1.74-7.73-4.67-10.19
		c-2.88-2.46-6.48-3.47-10.19-3.47c-4.02,0-7.91,1.2-10.79,4.02c-2.58,2.45-4.08,6.05-4.08,9.65
		C524.1,149.3,530.86,155.23,538.96,155.23"/>
	<path d="M564.03,148.39c0,2.58,0.54,4.62-2.7,4.91c-0.65,0.07-1.68-0.06-1.68,0.84c0,0.49,0.42,0.6,0.83,0.6
		c1.87,0,3.78-0.23,5.7-0.23c1.81,0,3.72,0.23,5.64,0.23c0.43,0,0.73-0.18,0.73-0.65c0-0.78-1.08-0.71-1.68-0.78
		c-3.25-0.3-2.7-2.33-2.7-4.91v-10.07c0-2.4,0.18-3.71,1.92-5.52c1.56-1.62,3.66-2.57,5.94-2.57c2.34,0,4.5,0.95,5.64,2.69
		c1.08,1.63,1.08,4.02,1.08,5.94v9.54c0,2.58,0.54,4.62-2.7,4.91c-0.65,0.07-1.68-0.06-1.68,0.84c0,0.49,0.42,0.6,0.84,0.6
		c1.86,0,3.77-0.23,5.69-0.23c1.81,0,3.72,0.23,5.64,0.23c0.42,0,0.73-0.18,0.73-0.65c0-0.78-1.08-0.71-1.68-0.78
		c-3.25-0.3-2.7-2.33-2.7-4.91v-9.47c0-2.88,0.12-5.82-1.8-8.28c-1.69-2.16-4.08-3.24-7.09-3.24c-5.45,0-8.8,4.91-9.82,4.91v-3.96
		c0-0.42,0.06-0.95-0.55-0.95c-0.48,0-0.77,0.48-1.07,0.77c-0.96,1.14-3.54,2.7-4.98,3.12c-0.54,0.19-1.38,0.31-1.38,1.02
		c0,0.36,0.37,0.48,0.73,0.48h0.77c0.49,0,1.38,0.07,1.75,0.49c0.65,0.65,0.6,3,0.6,3.83V148.39z"/>
	<path d="M266.65,201.81c-6.47,0-9.49-6.74-9.49-12.35c0-6.04,3.63-12.08,10.19-12.08c6.13,0,9.4,6.73,9.4,12
		C276.75,195.67,273.64,201.81,266.65,201.81 M271.06,215.26c4.73,0,11.12,1.21,11.12,7.34c0,7.51-10.35,9.92-16.22,9.92
		c-2.93,0-6.29-0.59-8.8-2.25c-2.24-1.45-4.06-3.79-4.06-6.64c0-4.06,3.97-6.47,7.08-8.37H271.06z M281.07,179.02
		c-2.68,0-2.76,0.08-5.17-1.12c-2.84-1.47-5.52-2.07-8.72-2.07c-8.03,0-16.49,5.17-16.49,13.98c0,8.89,9.41,11.74,9.41,12.95
		c0,0.86-7.59,3.53-8.8,3.96c-0.52,0.08-0.87,0.26-0.87,0.87c0,1.03,4.07,4.4,4.84,5c0.43,0.44,1.72,1.39,1.72,2.16
		c0,0.77-2.5,1.9-2.94,2.25l-2.41,1.38c-2.5,1.38-4.75,3.1-4.75,6.39c0,3.35,2.94,5.95,5.86,7.24c3.37,1.64,7.6,2.24,11.39,2.24
		c8.98,0,23.56-4.06,23.56-15.27c0-3.53-2.68-6.13-5.7-7.59c-3.37-1.64-6.57-1.56-10.18-1.56h-9.33c-1.55,0-5.17-0.69-5.17-2.76
		c0-1.38,1.64-1.9,2.68-2.33c2.68-1.12,3.63-1.12,6.55-1.28c4.4-0.18,8.98-1.05,12.35-4.07c2.59-2.5,4.31-5.77,4.31-9.31
		c0-2.07-0.25-3.63-1.12-5.44c-0.17-0.34-0.59-1.04-0.59-1.48c0-1.12,3.1-0.69,3.53-0.69c0.34,0,2.68,0.18,3.19-0.17
		c0.34-0.26,0.18-1.05,0.18-1.38c-0.18-2.25-0.87-1.9-3.02-1.9H281.07z"/>
	<path d="M330.17,206.03c0,3.71,0.77,6.65-3.88,7.08c-0.95,0.08-2.41-0.08-2.41,1.21c0,0.69,0.6,0.86,1.2,0.86
		c2.68,0,5.44-0.34,8.2-0.34c2.59,0,5.35,0.34,8.11,0.34c0.61,0,1.03-0.26,1.03-0.94c0-1.13-1.55-1.05-2.41-1.13
		c-4.66-0.43-3.88-3.37-3.88-7.08V192.4c0-3.46-0.1-5.7,1.99-8.63c1.03-1.3,2.5-3.11,4.39-3.11c2.43,0,2.59,3.28,5.53,3.28
		c2.07,0,3.62-1.3,3.62-3.45c0-2.59-2.32-4.15-4.91-4.15c-5.95,0-9.33,6.91-10.18,6.91c-0.61,0-0.43-1.47-0.43-1.82v-4.22
		c0-0.61,0.08-1.38-0.78-1.38c-0.69,0-1.12,0.69-1.55,1.12c-1.38,1.64-5.09,3.89-7.16,4.48c-0.78,0.26-1.99,0.44-1.99,1.46
		c0,0.52,0.51,0.7,1.04,0.7h1.12c0.69,0,1.99,0.08,2.51,0.69c0.94,0.95,0.86,4.31,0.86,5.52V206.03z"/>
	<path d="M408.18,214.23c-9.75,0-15.19-10.61-15.19-19.16c0-8.79,5.34-17.6,14.84-17.6c10,0,14.93,9.93,14.93,18.65
		C422.77,204.31,417.5,214.23,408.18,214.23 M407.92,215.87c11.56,0,21.4-8.54,21.4-20.36c0-5.53-2.5-11.13-6.73-14.68
		c-4.14-3.53-9.31-5-14.67-5c-5.78,0-11.4,1.72-15.53,5.78c-3.71,3.53-5.88,8.71-5.88,13.89
		C386.51,207.33,396.27,215.87,407.92,215.87"/>
	<path d="M503.88,179.11c0-0.95,0.43-2.15-0.95-2.15h-10.02c-0.68,0-1.2-0.18-1.2,0.59c0,1.12,1.64,1.12,2.43,1.12
		c4.65,0,3.79,3.28,3.79,6.91v16.49c0,2.41,0.33,4.4-1.48,6.39c-2.41,2.68-5.52,3.88-9.23,3.88c-3.19,0-6.91-1.12-8.64-3.96
		c-1.55-2.51-1.55-6.83-1.55-9.67v-18.64c0-1.3,0.43-3.1-1.38-3.1H466c-0.69,0-1.12-0.18-1.12,0.51c0,1.2,1.56,1.2,2.33,1.2
		c4.75,0,3.88,3.28,3.88,6.91v13.12c0,4.22-0.17,8.62,2.59,12.17c2.5,3.28,5.95,5.01,10.18,5.01c7.85,0,11.91-6.04,13.2-6.04
		c1.12,0,0.69,3.11,0.69,3.53v2.07c0,0.44,0,0.7,0.43,0.7c0.26,0,0.78-0.44,0.95-0.52c2.51-1.9,5.61-2.85,8.64-3.71
		c0.51-0.18,1.81-0.34,1.81-1.13c0-0.59-0.61-0.68-1.13-0.68l-1.12,0.08c-4.14,0.34-3.45-2.33-3.45-5.7V179.11z"/>
	<path d="M584.83,196.63c0,8.98-6.14,17.69-16.06,17.69c-2.59,0-5.6-0.95-7.51-2.5c-2.5-2.25-2.76-5.35-2.76-8.47v-13.37
		c0-1.99,0-4.32,1.46-5.96c2.15-3.19,6.21-4.48,9.75-4.48c3.89,0,7.85,1.72,10.53,4.48C583.44,187.38,584.83,192.05,584.83,196.63
		 M552.55,225.45c0,3.71,0.77,6.64-3.88,7.08c-0.95,0.08-2.43-0.08-2.43,1.21c0,0.69,0.61,0.86,1.21,0.86c2.68,0,5.44-0.34,8.2-0.34
		c2.59,0,5.35,0.34,8.11,0.34c0.61,0,1.03-0.25,1.03-0.95c0-1.12-1.55-1.03-2.41-1.12c-4.66-0.44-3.88-3.37-3.88-7.08v-9.23
		c0-0.52-0.34-2.59,0.69-2.59c0.51,0,1.46,0.34,1.99,0.43c3.02,1.03,5.34,1.82,8.62,1.82c12.08,0.08,21.58-8.46,21.58-20.37
		c0-5-1.81-10-5.27-13.63c-3.27-3.37-8.19-6.13-13.02-6.04c-5.27,0.08-10.1,2.41-14.58,6.13v-4.75c0-0.61,0.08-1.38-0.78-1.38
		c-0.69,0-1.12,0.69-1.55,1.13c-1.38,1.63-5.09,3.88-7.17,4.48c-0.77,0.26-1.97,0.43-1.97,1.46c0,0.52,0.51,0.69,1.04,0.69h1.12
		c0.69,0,1.99,0.1,2.5,0.69c0.95,0.95,0.87,4.32,0.87,5.53V225.45z"/>
</g>
</svg>
